<?xml version="1.0" encoding="iso-8859-1"?>
<!-- Uploaded to: SVG Repo, www.svgrepo.com, Generator: SVG Repo Mixer Tools -->
<!DOCTYPE svg PUBLIC "-//W3C//DTD SVG 1.1//EN" "http://www.w3.org/Graphics/SVG/1.1/DTD/svg11.dtd">
<svg fill="#000000" height="800px" width="800px" version="1.1" id="Capa_1" xmlns="http://www.w3.org/2000/svg" xmlns:xlink="http://www.w3.org/1999/xlink" 
	 viewBox="0 0 460.408 460.408" xml:space="preserve">
<g id="XMLID_105_">
	<path id="XMLID_109_" d="M178.119,164.886c14.811,1.093,14.468,1.068,39.286,2.899l43.727-13.856l38.776,51.818h-27.198
		c-0.155,5.164-1.393,10.1-3.65,14.662h28.156c4.328,11.392,15.34,19.49,28.25,19.49h57.548c16.688,0,30.216-13.528,30.216-30.216
		c0-2.17-1.759-3.929-3.929-3.929l-89.75-0.007l-43.894-58.657c5.116-5.024,7.303-12.663,4.989-19.965
		c-3.279-10.35-14.327-16.083-24.677-12.801l-3.905,1.238l-5.117-6.838c-2.604-3.477-7.53-4.184-11.008-1.584
		c-3.476,2.603-4.186,7.53-1.584,11.007l1.831,2.447l-31.651,10.03l-39.613-22.196c-4.604-8.763-13.788-14.742-24.374-14.742h-49.08
		c-15.2,0-27.522,12.322-27.522,27.522v64.004l0,0h46.611c0-16.344,0-17.28,0-28.192l-2.425-8.363l33.758,59.949
		c3.156,5.602,8.965,9.463,15.683,9.959l78.326,5.78c10.87,0.799,20.258-7.404,21.051-18.158
		c0.778-10.538-7.101-20.235-18.158-21.051l-67.814-5.004l-30.571-54.288C170.703,157.207,167.865,154.27,178.119,164.886z"/>
	<path id="XMLID_987_" d="M372.231,136.142c-0.182,1.238,0.279,2.479,1.128,3.038c0.849,0.56,1.879,0.302,2.524-0.631
		c4.864-7.037,9.861-17.065,7.333-26.189c-3.824-13.802-7.603-19.918-5.87-30.334c0.113-0.68-0.14-1.37-0.612-1.669
		c-0.472-0.299-1.041-0.13-1.374,0.41c-3.223,5.229-7.374,14.495-6.205,26.311C370.485,120.526,373.509,127.447,372.231,136.142z"/>
	<path id="XMLID_988_" d="M343.902,186.949c-0.182,1.238,0.279,2.479,1.128,3.039s1.88,0.301,2.524-0.631
		c4.865-7.037,9.861-17.065,7.333-26.189c-3.824-13.802-7.603-19.919-5.87-30.335c0.113-0.68-0.14-1.37-0.612-1.669
		c-0.472-0.299-1.041-0.13-1.374,0.41c-3.223,5.229-7.374,14.495-6.205,26.311C342.155,171.333,345.179,178.254,343.902,186.949z"/>
	<path id="XMLID_991_" d="M424.768,256.165H284.725c-8.685,0-15.727,7.042-15.727,15.727s7.042,15.727,15.726,15.727v164.653
		c0,3.323,2.694,6.017,6.017,6.017h128.009c3.323,0,6.017-2.694,6.017-6.017V287.619c8.685,0,15.727-7.042,15.727-15.727
		S433.453,256.165,424.768,256.165z"/>
	<path id="XMLID_992_" d="M188.553,314.784H138.3l5.285,14.41L121.83,431.925c-2.699,12.745,5.445,25.265,18.191,27.965
		c12.746,2.699,25.265-5.447,27.965-18.191l23.162-109.37C192.742,324.8,190.41,319.849,188.553,314.784z"/>
	<path id="XMLID_993_" d="M63.945,232.869c0,36.841,0.587,15.227-2.941,99.56l-39.306,95.396
		c-4.963,12.046,0.78,25.834,12.824,30.798c12.051,4.963,25.835-0.783,30.798-12.824l40.889-99.242
		c1.047-2.544,1.643-5.252,1.758-8.001c3.102-74.138,2.588-51.871,2.588-105.687H63.945L63.945,232.869z"/>
	<circle id="XMLID_994_" cx="116.221" cy="40.741" r="40.741"/>
	<path id="XMLID_995_" d="M181.106,236.067l-24.692-1.822c-16.86-1.245-27.491-13.897-29.629-21.263l-4.023-13.873H63.945v19.858
		h60.512v74.965c0,3.839,3.112,6.95,6.951,6.95h61.354c2.228,0,4.321-1.068,5.628-2.872s1.67-4.126,0.976-6.243L181.106,236.067z"/>
</g>
</svg>