<?xml version="1.0" encoding="utf-8"?><!-- Uploaded to: SVG Repo, www.svgrepo.com, Generator: SVG Repo Mixer Tools -->
<svg width="800px" height="800px" viewBox="0 0 400 400" fill="none" xmlns="http://www.w3.org/2000/svg">
<path d="M252.644 56.915C295.342 38.4482 320.69 113.363 271.651 123.522C231.551 131.832 216.845 78.0154 247.144 58.0544" stroke="#000000" stroke-opacity="0.9" stroke-width="16" stroke-linecap="round" stroke-linejoin="round"/>
<path d="M330.482 265.712C341.911 277.397 345.967 295.564 330.334 311.241C305.977 335.671 271.834 312.649 271.756 285.037" stroke="#000000" stroke-opacity="0.9" stroke-width="16" stroke-linecap="round" stroke-linejoin="round"/>
<path d="M192.293 285.199C193.35 293.668 190.602 302.807 182.127 311.229C159.576 333.641 128.721 316.163 123.655 291.812" stroke="#000000" stroke-opacity="0.9" stroke-width="16" stroke-linecap="round" stroke-linejoin="round"/>
<path d="M231 133C206.612 161.128 194.495 179.606 187 209" stroke="#000000" stroke-opacity="0.9" stroke-width="16" stroke-linecap="round" stroke-linejoin="round"/>
<path d="M231.268 139C230.078 174.935 230.842 200.382 278 181.706" stroke="#000000" stroke-opacity="0.9" stroke-width="16" stroke-linecap="round" stroke-linejoin="round"/>
<path d="M270.454 181.27C277.648 203.747 292.95 234.179 296.436 257.918" stroke="#000000" stroke-opacity="0.9" stroke-width="16" stroke-linecap="round" stroke-linejoin="round"/>
<path d="M198.698 209.851C179.8 211.119 147.038 219.427 133.916 234.11C126.125 242.825 100.697 270.714 108.106 285.446C112.07 293.339 163.502 289.662 170.276 288.7C200.718 284.374 240.691 289.662 270.337 285.446C276.764 284.532 267.42 277.198 275.865 277.198C288.469 277.198 350.064 262.896 339.366 250.123C314.559 220.523 257.393 244.451 266.097 274.746" stroke="#000000" stroke-opacity="0.9" stroke-width="16" stroke-linecap="round" stroke-linejoin="round"/>
<path d="M200.303 212.449C207.9 229.886 214.057 274.576 214.593 278.703" stroke="#000000" stroke-opacity="0.9" stroke-width="16" stroke-linecap="round" stroke-linejoin="round"/>
<path d="M200.303 208.553C255.045 208.309 257.332 233.927 223.294 274.806" stroke="#000000" stroke-opacity="0.9" stroke-width="16" stroke-linecap="round" stroke-linejoin="round"/>
<path d="M169.124 213.748C142.024 230.768 99.6067 221.459 67.7939 231.936" stroke="#000000" stroke-opacity="0.9" stroke-width="16" stroke-linecap="round" stroke-linejoin="round"/>
<path d="M60 128.007C68.4342 143.576 60 224.334 63.5625 228.038" stroke="#000000" stroke-opacity="0.9" stroke-width="16" stroke-linecap="round" stroke-linejoin="round"/>
<path d="M63.8965 128.233C105.69 123.275 132.857 122.22 136.014 128.233C139.17 134.247 139.17 171.658 130.567 218.945" stroke="#000000" stroke-opacity="0.9" stroke-width="16" stroke-linecap="round" stroke-linejoin="round"/>
</svg>