<?xml version="1.0" ?>
<!-- Uploaded to: SVG Repo, www.svgrepo.com, Generator: SVG Repo Mixer Tools -->
<svg width="800px" height="800px" viewBox="0 0 512 512" version="1.1" xml:space="preserve" xmlns="http://www.w3.org/2000/svg" xmlns:xlink="http://www.w3.org/1999/xlink">
<style type="text/css">
	.st0{fill:#333333;}
	.st1{fill:none;stroke:#333333;stroke-width:32;stroke-linecap:round;stroke-linejoin:round;stroke-miterlimit:10;}
</style>
<g id="Layer_1"/>
<g id="Layer_2">
<g>
<path class="st0" d="M263.24,43.5c-117.36,0-212.5,95.14-212.5,212.5s95.14,212.5,212.5,212.5s212.5-95.14,212.5-212.5    S380.6,43.5,263.24,43.5z M367.83,298.36c17.18,17.18,17.18,45.04,0,62.23v0c-17.18,17.18-45.04,17.18-62.23,0l-42.36-42.36    l-42.36,42.36c-17.18,17.18-45.04,17.18-62.23,0v0c-17.18-17.18-17.18-45.04,0-62.23L201.01,256l-42.36-42.36    c-17.18-17.18-17.18-45.04,0-62.23v0c17.18-17.18,45.04-17.18,62.23,0l42.36,42.36l42.36-42.36c17.18-17.18,45.04-17.18,62.23,0v0    c17.18,17.18,17.18,45.04,0,62.23L325.46,256L367.83,298.36z"/>
</g>
</g>
</svg>